Coordinates
version=1
nRows=12
nColumns=28
inDegrees=yes

Units are S.I. units (second, meters, Newtons, ...)
Angles are in degrees.

endheader
time	pelvis_tilt	pelvis_list	pelvis_rotation	pelvis_tx	pelvis_ty	pelvis_tz	hip_flexion_r	hip_adduction_r	hip_rotation_r	knee_angle_r	ankle_angle_r	subtalar_angle_r	mtp_angle_r	hip_flexion_l	hip_adduction_l	hip_rotation_l	knee_angle_l	socket_flexion	socket_adduction	socket_rotation	socket_tx	socket_ty	socket_tz	foot_flex	lumbar_extension	lumbar_bending	lumbar_rotation
      0.65416667	     -1.03270123	     -0.65846951	      7.74072967	     -0.04078990	      0.97970778	      0.26851532	     28.17320566	      2.98529515	      2.33654677	     -8.45406179	     16.07246909	    -29.08495427	    -14.13939411	    -19.77402352	     -0.20319139	     16.42288279	     -5.28916671	      0.00000000	      0.00000000	      0.00000000	      0.00000000	     -0.00256428	      0.00000000	     10.22807697	    -10.55130480	     -0.71788758	     -2.10718788
      0.65833333	     -1.01684287	     -0.72497965	      7.94761019	     -0.03481481	      0.97883443	      0.26808787	     28.18012707	      3.11449005	      2.59554952	     -8.95454040	     15.99324951	    -29.08834540	    -14.07465503	    -20.00876048	     -0.34334878	     16.57154900	     -5.52634037	      0.00000000	      0.00000000	      0.00000000	      0.00000000	     -0.00248524	      0.00000000	     10.22834181	    -10.52066923	     -0.51682380	     -2.13183207
      0.66250000	     -0.97673510	     -0.80928149	      8.09146120	     -0.02883378	      0.97796940	      0.26779016	     28.24359794	      3.29337082	      2.80852765	     -9.62182338	     15.81344167	    -29.10565438	    -13.99889569	    -20.27090247	     -0.49197346	     16.67744696	     -5.76237475	      0.00000000	      0.00000000	      0.00000000	      0.00000000	     -0.00237641	      0.00000000	     10.25885129	    -10.53635201	     -0.28943324	     -2.19163463
      0.66666667	     -0.64303902	     -0.90147211	      8.23640914	     -0.02254909	      0.97740005	      0.26722435	     28.13867899	      3.41818864	      2.16878452	    -10.47185406	     13.69244204	    -29.44316417	     -6.08480600	    -20.89853586	     -0.67225728	     16.60764586	     -5.93587600	      0.00000000	      0.00000000	      0.00000000	      0.00000000	     -0.00224256	      0.00000000	     10.26452356	    -10.82526727	      0.02804043	     -2.49225718
      0.67083333	     -0.63116991	     -0.96526765	      8.39228525	     -0.01651588	      0.97658307	      0.26686641	     28.18818119	      3.55916889	      2.41465440	    -11.05878595	     13.49576532	    -29.38124748	     -6.08682486	    -21.09375351	     -0.78669355	     16.71498586	     -6.24759208	      0.00000000	      0.00000000	      0.00000000	      0.00000000	     -0.00211217	      0.00000000	     10.25054775	    -10.79555751	      0.22390155	     -2.50304346
      0.67500000	     -0.56899669	     -1.07468972	      8.37852764	     -0.01032699	      0.97571677	      0.26669837	     28.36132159	      3.80122317	      2.37025294	    -11.96416825	     13.01980060	    -29.35398288	     -6.00443556	    -21.38335375	     -0.89737718	     16.54672278	     -6.51244934	      0.00000000	      0.00000000	      0.00000000	      0.00000000	     -0.00200730	      0.00000000	     10.24145948	    -10.78302832	      0.46946507	     -2.58517516
      0.67916667	     -0.47225658	     -1.16673668	      8.51902875	     -0.00406156	      0.97499062	      0.26619522	     28.44794178	      3.90612631	      2.04051553	    -12.74060732	     11.72899796	    -29.29763023	     -1.32426714	    -21.67156400	     -1.03197590	     16.57952628	     -6.84004783	      0.00000000	      0.00000000	      0.00000000	      0.00000000	     -0.00190634	      0.00000000	     10.19279093	    -10.80832607	      0.73159587	     -2.66012647
      0.68333333	     -0.43538024	     -1.24732278	      8.61855508	      0.00199176	      0.97432031	      0.26591769	     28.50058805	      4.08031944	      2.24198445	    -13.38109087	     11.47333114	    -29.23155206	     -1.33210588	    -21.83922824	     -1.13793938	     16.63664062	     -7.24869843	      0.00000000	      0.00000000	      0.00000000	      0.00000000	     -0.00179601	      0.00000000	     10.11985342	    -10.80560533	      0.94675482	     -2.66666514
      0.68750000	     -0.34750526	     -1.38171320	      8.56416997	      0.00827796	      0.97360471	      0.26578793	     28.64319148	      4.34482099	      2.16316193	    -14.28439687	     10.91762757	    -29.16212998	     -1.26041990	    -22.11079718	     -1.24677404	     16.41049583	     -7.60211238	      0.00000000	      0.00000000	      0.00000000	      0.00000000	     -0.00169441	      0.00000000	     10.04183990	    -10.80899793	      1.21967753	     -2.69275864
      0.69166667	     -0.25765332	     -1.52085476	      8.57465102	      0.01452490	      0.97301925	      0.26553899	     28.71133539	      4.58714441	      2.17580581	    -15.05438930	     10.46526647	    -29.06884399	     -1.07247999	    -22.33693610	     -1.37609373	     16.28461248	     -8.02369830	      0.00000000	      0.00000000	      0.00000000	      0.00000000	     -0.00160082	      0.00000000	      9.92900324	    -10.82666721	      1.51827514	     -2.66596352
      0.69583333	     -0.20043269	     -1.62093369	      8.66569033	      0.02064934	      0.97256216	      0.26523229	     28.71341113	      4.76177978	      2.35489857	    -15.66085826	     10.22609866	    -28.99012551	     -1.01187214	    -22.45438983	     -1.48386623	     16.31368367	     -8.55330697	      0.00000000	      0.00000000	      0.00000000	      0.00000000	     -0.00148753	      0.00000000	      9.77695041	    -10.83251360	      1.75651872	     -2.64533489
      0.70000000	     -0.06159389	     -1.80481654	      8.54656965	      0.02704339	      0.97205374	      0.26509956	     28.83022130	      5.07046630	      2.13499550	    -16.62436985	      9.59346291	    -28.86109767	     -0.72329081	    -22.73164029	     -1.60650172	     15.98880125	     -8.99607622	      0.00000000	      0.00000000	      0.00000000	      0.00000000	     -0.00139102	      0.00000000	      9.62472461	    -10.87851744	      2.10656921	     -2.61400707
